<?xml version="1.0" encoding="UTF-8" standalone="no"?>
<!DOCTYPE svg PUBLIC "-//W3C//DTD SVG 1.1//EN" "http://www.w3.org/Graphics/SVG/1.1/DTD/svg11.dtd">
<svg width="100%" height="100%" viewBox="0 0 500 500" version="1.1" xmlns="http://www.w3.org/2000/svg" xmlns:xlink="http://www.w3.org/1999/xlink" xml:space="preserve" xmlns:serif="http://www.serif.com/" style="fill-rule:evenodd;clip-rule:evenodd;stroke-linecap:round;stroke-linejoin:round;stroke-miterlimit:1.5;">
    <rect id="Artboard1" x="0" y="0" width="500" height="500" style="fill:none;"/>
    <g id="Artboard11" serif:id="Artboard1">
        <g>
            <path d="M26.582,117.066L26.693,394.759L221.127,394.684C240.236,410.29 259.508,410.964 278.966,394.722L473.445,394.731L473.476,116.894L26.582,117.066" style="fill:rgb(25,108,119);stroke:black;stroke-width:6px;"/>
            <path d="M464.159,128.616L440.916,117.053L249.938,122.502L59.034,117.053L35.946,128.607L35.946,380.838L237.166,380.838L250.054,368.121L262.796,380.863L464.159,380.863L464.159,128.616Z" style="fill:rgb(167,167,167);stroke:black;stroke-width:6px;"/>
            <clipPath id="_clip1">
                <rect x="250.107" y="96.716" width="190.966" height="271.417"/>
            </clipPath>
            <g clip-path="url(#_clip1)">
                <path d="M59.034,117.053C131.146,90.368 194.146,92.442 250.029,116.98C307.425,90.449 370.838,89.503 440.916,116.907L441.073,364.572C377.253,336.785 313.574,338.281 250.029,368.133C187.104,340.056 123.529,337.036 59.155,364.73L59.034,117.053Z" style="fill:white;"/>
                <clipPath id="_clip2">
                    <path d="M59.034,117.053C131.146,90.368 194.146,92.442 250.029,116.98C307.425,90.449 370.838,89.503 440.916,116.907L441.073,364.572C377.253,336.785 313.574,338.281 250.029,368.133C187.104,340.056 123.529,337.036 59.155,364.73L59.034,117.053Z"/>
                </clipPath>
                <g clip-path="url(#_clip2)">
                    <g transform="matrix(1.40637,0,0,1.9325,7.93442,-123.886)">
                        <path d="M269.689,232.425L293.712,232.425L261.041,136.331L233.036,136.331L200.364,232.425L224.388,232.425L229.192,217.324L264.884,217.324L269.689,232.425ZM235.782,196.733L247.038,161.453L258.295,196.733L235.782,196.733Z" style="fill:rgb(42,183,202);fill-rule:nonzero;"/>
                    </g>
                </g>
                <path d="M59.034,117.053C131.146,90.368 194.146,92.442 250.029,116.98C307.425,90.449 370.838,89.503 440.916,116.907L441.073,364.572C377.253,336.785 313.574,338.281 250.029,368.133C187.104,340.056 123.529,337.036 59.155,364.73L59.034,117.053Z" style="fill:none;stroke:black;stroke-width:6px;"/>
            </g>
            <clipPath id="_clip3">
                <rect x="59.034" y="96.716" width="190.966" height="271.417"/>
            </clipPath>
            <g clip-path="url(#_clip3)">
                <path d="M59.034,117.053C131.146,90.368 194.146,92.442 250.029,116.98C307.425,90.449 370.838,89.503 440.916,116.907L441.073,364.572C377.253,336.785 313.574,338.281 250.029,368.133C187.104,340.056 123.529,337.036 59.155,364.73L59.034,117.053Z" style="fill:white;"/>
                <clipPath id="_clip4">
                    <path d="M59.034,117.053C131.146,90.368 194.146,92.442 250.029,116.98C307.425,90.449 370.838,89.503 440.916,116.907L441.073,364.572C377.253,336.785 313.574,338.281 250.029,368.133C187.104,340.056 123.529,337.036 59.155,364.73L59.034,117.053Z"/>
                </clipPath>
                <g clip-path="url(#_clip4)">
                    <g transform="matrix(1.40637,0,0,1.9325,-24.947,-123.886)">
                        <path d="M151.494,182.593C156.71,178.063 159.868,171.748 159.868,163.786C159.868,147.176 146.277,136.331 129.53,136.331L91.916,136.331L91.916,232.425L132.275,232.425C149.435,232.425 163.3,221.305 163.3,204.283C163.3,194.536 158.632,187.123 151.494,182.593ZM129.53,156.922C134.609,156.922 137.903,160.492 137.903,165.434C137.903,170.376 134.472,173.945 129.53,173.945L113.88,173.945L113.88,156.922L129.53,156.922ZM132.275,211.833L113.88,211.833L113.88,193.438L132.275,193.438C137.766,193.438 141.335,197.282 141.335,202.636C141.335,207.989 137.766,211.833 132.275,211.833Z" style="fill:rgb(42,183,202);fill-rule:nonzero;"/>
                    </g>
                </g>
                <path d="M59.034,117.053C131.146,90.368 194.146,92.442 250.029,116.98C307.425,90.449 370.838,89.503 440.916,116.907L441.073,364.572C377.253,336.785 313.574,338.281 250.029,368.133C187.104,340.056 123.529,337.036 59.155,364.73L59.034,117.053Z" style="fill:none;stroke:black;stroke-width:6px;"/>
            </g>
            <path d="M250.029,116.98L250.029,368.133" style="fill:none;stroke:black;stroke-width:6px;"/>
            <path d="M355.363,93.776L355.363,262.797L381.994,240.765L410.867,269.639L410.867,103.11C392.78,97.51 374.248,94.582 355.363,93.776Z" style="fill:rgb(251,73,73);stroke:black;stroke-width:6px;"/>
        </g>
    </g>
</svg>
